<?xml version="1.0" encoding="UTF-8" standalone="no"?>
<!-- Created with Inkscape (http://www.inkscape.org/) -->

<svg
   width="100mm"
   height="100mm"
   viewBox="0 0 100 100"
   version="1.1"
   id="svg1"
   inkscape:version="1.4.2 (f4327f4, 2025-05-13)"
   sodipodi:docname="Right handed pentagram in a circle.svg"
   inkscape:export-filename="Right handed pentagram in a circle.png"
   inkscape:export-xdpi="274.32001"
   inkscape:export-ydpi="274.32001"
   xmlns:inkscape="http://www.inkscape.org/namespaces/inkscape"
   xmlns:sodipodi="http://sodipodi.sourceforge.net/DTD/sodipodi-0.dtd"
   xmlns="http://www.w3.org/2000/svg"
   xmlns:svg="http://www.w3.org/2000/svg"
   xmlns:rdf="http://www.w3.org/1999/02/22-rdf-syntax-ns#"
   xmlns:cc="http://creativecommons.org/ns#"
   xmlns:dc="http://purl.org/dc/elements/1.1/">
  <title
     id="title1">Right handed pentagram in a circle</title>
  <sodipodi:namedview
     id="namedview1"
     pagecolor="#ffffff"
     bordercolor="#000000"
     borderopacity="0.25"
     inkscape:showpageshadow="2"
     inkscape:pageopacity="0.0"
     inkscape:pagecheckerboard="0"
     inkscape:deskcolor="#d1d1d1"
     inkscape:document-units="mm"
     showguides="true"
     inkscape:zoom="1.4142136"
     inkscape:cx="163.34166"
     inkscape:cy="201.87898"
     inkscape:window-width="1920"
     inkscape:window-height="1017"
     inkscape:window-x="-8"
     inkscape:window-y="-8"
     inkscape:window-maximized="1"
     inkscape:current-layer="g226">
    <sodipodi:guide
       position="50,50"
       orientation="0,-1"
       id="guide1"
       inkscape:locked="false" />
    <sodipodi:guide
       position="50,50"
       orientation="1,0"
       id="guide2"
       inkscape:locked="false" />
    <sodipodi:guide
       position="85.312432,60.25134"
       orientation="0,1"
       id="guide43"
       inkscape:locked="false"
       inkscape:label=""
       inkscape:color="rgb(0,134,229)" />
    <sodipodi:guide
       position="66.674999,63.751336"
       orientation="0,-1"
       id="guide44"
       inkscape:locked="false" />
  </sodipodi:namedview>
  <defs
     id="defs1">
    <rect
       x="-137.32211"
       y="-4.3826206"
       width="80.348044"
       height="78.400213"
       id="rect3" />
  </defs>
  <g
     inkscape:groupmode="layer"
     id="g226"
     inkscape:label="Visible lines copy"
     style="display:none;fill:#ffffff"
     transform="translate(-147.10833,1.8054531e-4)">
    <path
       id="path212"
       style="display:inline;fill:#ffffff;stroke-width:0.414455"
       inkscape:label="Line 1"
       d="m 7.6780843,36.248433 4.8172767,3.500045 h 75.009375 l 4.817277,-3.500045 H 59.990653 40.009444 Z"
       transform="translate(147.10833,-1.8054531e-4)" />
    <path
       id="path213"
       style="display:none;fill:#ffffff;stroke-width:0.414455"
       inkscape:label="Line 212"
       d="m 193.77929,6.580874 -1.84012,5.663075 23.17917,71.338156 4.81737,3.49993 -9.99094,-30.74895 -6.17454,-19.003261 z" />
    <path
       id="path214"
       style="display:none;fill:#ffffff;stroke-width:0.414455"
       inkscape:label="Line 211"
       d="m 200.43678,4.417729 -1.84012,5.663076 23.17917,71.338155 4.81737,3.499931 -9.99094,-30.748951 -6.17454,-19.003261 z" />
    <path
       id="path215"
       style="display:inline;fill:#ffffff;stroke-width:0.414455"
       inkscape:label="Line 2"
       d="m 197.10804,5.4993015 -1.84012,5.6630755 23.17917,71.338156 4.81737,3.49993 -9.99094,-30.74895 -6.17454,-19.003261 z" />
    <path
       id="path216"
       style="display:none;fill:#ffffff;stroke-width:0.414455"
       inkscape:label="Line 321"
       d="m 168.8947,83.16936 1.83998,-5.66312 60.68386,-44.089399 5.95453,7.1e-5 -26.15662,19.003897 -16.16513,11.744661 z" />
    <path
       id="path217"
       style="display:none;fill:#ffffff;stroke-width:0.414455"
       inkscape:label="Line 322"
       d="m 174.49786,87.750794 1.83998,-5.66312 60.68386,-44.089399 5.95453,7.1e-5 -26.15662,19.003897 -16.16513,11.744661 z" />
    <path
       id="path218"
       style="display:inline;fill:#ffffff;stroke-width:0.414455"
       inkscape:label="Line 3"
       d="m 170.95198,86.000959 1.83998,-5.66312 60.68386,-44.089399 5.95453,7.1e-5 -26.15662,19.003897 -16.16513,11.744661 z" />
    <path
       id="path219"
       style="display:none;fill:#ffffff;stroke-width:0.414455"
       inkscape:label="Line 531"
       d="m 152.72934,39.079215 5.95454,-7.1e-5 60.68386,44.089399 1.83998,5.66312 -26.15662,-19.00389 -16.16514,-11.744661 z" />
    <path
       id="path220"
       style="display:none;fill:#ffffff;stroke-width:0.414455"
       inkscape:label="Line 532"
       d="m 156.8439,33.416017 5.95454,-7.1e-5 60.68386,44.089399 1.83998,5.66312 -26.15662,-19.00389 -16.16514,-11.744661 z" />
    <path
       id="path221"
       style="display:inline;fill:#ffffff;stroke-width:0.414455"
       inkscape:label="Line 4"
       d="m 170.9523,86.000463 4.81736,-3.49993 23.17917,-71.338156 -1.84012,-5.6630755 -9.99094,30.7489505 -6.17453,19.003261 z" />
    <path
       id="path222"
       style="display:none;fill:#ffffff;stroke-width:0.414455"
       inkscape:label="Cut 141"
       d="m 154.78637,39.748479 4.81727,3.500045 h 75.00938 l 4.81727,-3.500045 h -32.33136 -19.9812 z" />
    <path
       id="path223"
       style="display:none;fill:#ffffff;stroke-width:0.414455"
       inkscape:label="Cut 142"
       d="m 154.78637,32.748438 4.81727,3.500045 h 75.00938 l 4.81727,-3.500045 h -32.33136 -19.9812 z" />
    <path
       id="path224"
       style="display:inline;fill:#ffffff;stroke-width:0.414455"
       inkscape:label="Line 5"
       d="m 154.78662,36.247616 5.95454,-7.1e-5 60.68386,44.089399 1.83998,5.66312 -26.15662,-19.00389 -16.16514,-11.744661 z" />
    <path
       id="path225"
       style="display:none;fill:#ffffff;stroke-width:0.414455"
       inkscape:label="Line 451"
       d="m 174.28104,87.082036 4.81736,-3.499931 23.17917,-71.338156 -1.84012,-5.663075 -9.99094,30.74895 -6.17453,19.003261 z" />
    <path
       id="path226"
       style="display:none;fill:#ffffff;stroke-width:0.414455"
       inkscape:label="Line 452"
       d="m 167.62356,84.91889 4.81736,-3.49993 23.17917,-71.338156 -1.84012,-5.663075 -9.99094,30.74895 -6.17453,19.003261 z" />
  </g>
  <g
     inkscape:groupmode="layer"
     id="layer2"
     inkscape:label="Background"
     style="display:inline">
    <rect
       style="fill:#000000;stroke-width:0.264583"
       id="rect1"
       width="100"
       height="100"
       x="0"
       y="0"
       inkscape:label="Black background" />
  </g>
  <g
     inkscape:label="Circles"
     inkscape:groupmode="layer"
     id="layer1"
     style="display:inline;fill:#ffffff">
    <path
       id="path42"
       style="fill:#ffffff;stroke-width:0.624509"
       d="M 50.000049 1.9998779 A 48 48 0 0 0 1.9998779 50.000049 A 48 48 0 0 0 50.000049 98.00022 A 48 48 0 0 0 98.00022 50.000049 A 48 48 0 0 0 50.000049 1.9998779 z M 50.000049 5.4999227 A 44.5 44.5 0 0 1 94.500175 50.000049 A 44.5 44.5 0 0 1 50.000049 94.500175 A 44.5 44.5 0 0 1 5.4999227 50.000049 A 44.5 44.5 0 0 1 50.000049 5.4999227 z "
       inkscape:label="Ring" />
  </g>
  <g
     inkscape:groupmode="layer"
     id="layer3"
     inkscape:label="Star"
     style="display:none">
    <path
       style="display:inline;fill:#ffffff;stroke-width:0.414455"
       d="M 23.843603,86.001174 50.000049,5.4999227 76.156491,86.001174 7.678035,36.248664 h 84.64403 z"
       id="path5"
       inkscape:label="Original" />
    <path
       id="path49"
       style="display:none;fill:#ffffff;stroke-width:0.414455"
       inkscape:label="Original"
       d="m 197.10804,5.4993015 -1.84012,5.6630755 23.17917,71.338156 4.81737,3.49993 -9.99094,-30.74895 -6.17454,-19.003261 z"
       transform="translate(-147.10833,1.8054531e-4)" />
  </g>
  <g
     inkscape:groupmode="layer"
     id="layer4"
     inkscape:label="Visible lines"
     style="display:inline;fill:#ffffff"
     transform="translate(-147.10833,1.8054531e-4)">
    <path
       id="path44"
       style="display:inline;fill:#ffffff;stroke-width:0.414455"
       inkscape:label="Line 1"
       d="M 7.6780843 36.248433 L 12.495361 39.748478 L 53.767261 39.748478 L 52.630379 36.248433 L 40.009444 36.248433 L 7.6780843 36.248433 z M 56.310258 36.248433 L 56.661658 37.330021 L 57.447656 39.748478 L 61.127535 39.748478 L 59.990653 36.248433 L 56.310258 36.248433 z M 63.670532 36.248433 L 64.807931 39.748478 L 87.504736 39.748478 L 92.322013 36.248433 L 63.670532 36.248433 z "
       transform="translate(147.10833,-1.8054531e-4)" />
    <path
       id="path52"
       style="display:inline;fill:#ffffff;stroke-width:0.414455"
       inkscape:label="Line 2"
       d="M 197.10786 5.4992254 L 195.26766 11.162446 L 208.02192 50.415347 L 210.999 48.252171 L 207.09898 36.248253 L 197.10786 5.4992254 z M 212.1364 51.752733 L 211.21656 52.420909 L 209.15932 53.915392 L 210.29672 57.415436 L 213.27328 55.252261 L 213.27328 55.251744 L 212.1364 51.752733 z M 214.41068 58.752306 L 211.4336 60.915481 L 218.44713 82.500727 L 223.26441 86.000255 L 214.41068 58.752306 z " />
    <path
       id="path46"
       style="display:inline;fill:#ffffff;stroke-width:0.414455"
       inkscape:label="Line 3"
       d="M 233.47567 36.248253 L 200.08649 60.507237 L 203.06357 62.670413 L 213.2738 55.252261 L 239.43034 36.248253 L 233.47567 36.248253 z M 197.10941 62.670413 L 194.13182 64.833588 L 197.1089 66.996764 L 200.08649 64.833588 L 199.16562 64.164378 L 197.10941 62.670413 z M 191.15474 66.996764 L 172.79203 80.338068 L 170.95184 86.000772 L 194.13182 69.159939 L 191.15474 66.996764 z " />
    <path
       id="path47"
       style="display:inline;fill:#ffffff;stroke-width:0.414455"
       inkscape:label="Line 4"
       d="M 197.1089 5.4992254 L 188.25517 32.748208 L 191.93505 32.748208 L 198.94858 11.162446 L 197.1089 5.4992254 z M 187.11777 36.248253 L 185.98038 39.748298 L 187.11777 39.748298 L 189.66077 39.748298 L 190.79817 36.248253 L 187.11777 36.248253 z M 184.84349 43.248342 L 180.94347 55.251744 L 170.95235 86.000255 L 175.76963 82.500727 L 188.52337 43.248342 L 184.84349 43.248342 z " />
    <path
       id="path48"
       style="display:inline;fill:#ffffff;stroke-width:0.414455"
       inkscape:label="Line 5"
       d="M 154.78641 36.247736 L 177.96588 53.088569 L 179.10328 49.588524 L 160.74109 36.247736 L 154.78641 36.247736 z M 182.08036 51.751699 L 180.94347 55.251744 L 183.92055 57.41492 L 184.27195 56.333332 L 185.05795 53.914875 L 182.08036 51.751699 z M 188.03503 56.07805 L 186.89815 59.578095 L 197.10838 66.996247 L 223.26492 86.000255 L 221.42524 80.337035 L 188.03503 56.07805 z " />
  </g>
  <metadata
     id="metadata1">
    <rdf:RDF>
      <cc:Work
         rdf:about="">
        <dc:title>Right handed pentagram in a circle</dc:title>
        <dc:creator>
          <cc:Agent>
            <dc:title>Sk. Mashrur Sourov</dc:title>
          </cc:Agent>
        </dc:creator>
        <dc:date>Sunday, February 02, 2025</dc:date>
      </cc:Work>
    </rdf:RDF>
  </metadata>
</svg>
